<svg width="512" height="512" viewBox="0 0 512 512" fill="none" xmlns="http://www.w3.org/2000/svg" role="img" aria-label="boneCV">
  <defs>
    <linearGradient id="bg" x1="0" y1="0" x2="512" y2="512" gradientUnits="userSpaceOnUse">
      <stop offset="0" stop-color="#3b82f6"/>
      <stop offset="0.55" stop-color="#2563eb"/>
      <stop offset="1" stop-color="#1d4ed8"/>
    </linearGradient>
    <linearGradient id="doc" x1="176" y1="140" x2="336" y2="372" gradientUnits="userSpaceOnUse">
      <stop offset="0" stop-color="#ffffff"/>
      <stop offset="1" stop-color="#eaf1ff"/>
    </linearGradient>
    <filter id="soft" x="-20%" y="-20%" width="140%" height="140%">
      <feDropShadow dx="0" dy="10" stdDeviation="14" flood-color="#0b1e52" flood-opacity="0.28"/>
    </filter>
  </defs>
  <rect width="512" height="512" rx="112" fill="url(#bg)"/>
  <rect width="512" height="256" rx="112" fill="#ffffff" opacity="0.06"/>
  <g filter="url(#soft)">
    <rect x="150" y="132" width="212" height="248" rx="28" fill="url(#doc)"/>
    <path d="M312 132 L362 182 L312 182 Z" fill="#c9d9ff"/>
  </g>
  <circle cx="196" cy="196" r="22" fill="#2563eb"/>
  <rect x="230" y="182" width="96" height="14" rx="7" fill="#2563eb"/>
  <rect x="230" y="204" width="66" height="10" rx="5" fill="#9db8f5"/>
  <rect x="182" y="242" width="148" height="8" rx="4" fill="#3b82f6"/>
  <rect x="182" y="268" width="148" height="10" rx="5" fill="#dbe5fb"/>
  <rect x="182" y="290" width="148" height="10" rx="5" fill="#dbe5fb"/>
  <rect x="182" y="312" width="104" height="10" rx="5" fill="#dbe5fb"/>
  <rect x="182" y="340" width="72" height="12" rx="6" fill="#2563eb"/>
</svg>
